<?xml version="1.0" encoding="utf-8"?>
<!-- Generator: Adobe Illustrator 16.0.0, SVG Export Plug-In . SVG Version: 6.00 Build 0)  -->
<!DOCTYPE svg PUBLIC "-//W3C//DTD SVG 1.1//EN" "http://www.w3.org/Graphics/SVG/1.1/DTD/svg11.dtd">
<svg version="1.1" id="Capa_1" xmlns="http://www.w3.org/2000/svg" xmlns:xlink="http://www.w3.org/1999/xlink" x="0px" y="0px"
	 width="296px" height="278px" viewBox="0 0 296 278" enable-background="new 0 0 296 278" xml:space="preserve">
<path fill="#0684AC" d="M70.486,85.902c-0.243-0.059-0.48-0.121-0.721-0.173c-0.079-0.017-0.118-0.055-0.144-0.132
	c-1.833-5.622-3.667-11.243-5.502-16.861c-0.014-0.044-0.03-0.089-0.053-0.155c-0.167,0.355-0.324,0.688-0.478,1.023
	c-0.925,2.032-1.75,4.105-2.371,6.257c-0.235,0.81-0.475,2.165-0.588,3c-0.152,1.111-0.316,2.221-0.455,3.334
	c-0.143,1.13-0.255,2.264-0.381,3.397c-0.019,0.164-0.034,0.33-0.053,0.503c-0.243,0-0.478,0.004-0.712-0.003
	c-0.089-0.001-0.147,0.027-0.201,0.095c-0.327,0.404-0.511,0.87-0.616,1.374c-0.083,0.387-0.105,0.78-0.091,1.177
	c0.001,0.046,0,0.092,0,0.146c-0.056,0.003-0.105,0.006-0.155,0.007c-1.771,0.024-3.54,0.049-5.311,0.07
	c-0.079,0-0.166-0.02-0.237-0.053c-0.293-0.138-0.548-0.325-0.734-0.595c-0.245-0.358-0.26-0.742-0.116-1.139
	c0.135-0.371,0.365-0.681,0.63-0.967c0.023-0.027,0.066-0.042,0.102-0.049c0.906-0.211,1.813-0.418,2.717-0.626
	c0.023-0.005,0.046-0.016,0.083-0.026c-0.394-0.183-0.494-0.529-0.538-0.9c-0.066-0.564,0.036-1.113,0.164-1.655
	c0.066-0.281,0.152-0.559,0.229-0.837c0.009-0.033,0.019-0.072,0.012-0.104c-0.114-0.468-0.095-0.942-0.066-1.416
	c0.101-1.677,0.423-3.321,0.783-4.957c0.196-0.883,0.424-1.756,0.619-2.639c0.098-0.455,0.167-0.915,0.244-1.374
	c0.173-1.055,0.368-2.104,0.541-3.159c0.115-0.696,0.24-1.39,0.357-2.083c0.004-0.033-0.006-0.086-0.027-0.102
	c-0.22-0.163-0.299-0.393-0.335-0.647c-0.061-0.436,0.027-0.857,0.147-1.271c0.253-0.88,0.66-1.689,1.103-2.483
	c0.059-0.102,0.118-0.206,0.177-0.313c-0.284-0.233-0.567-0.453-0.834-0.69c-0.678-0.599-1.388-1.168-2.014-1.818
	c-1.029-1.066-1.966-2.214-2.71-3.504c-0.103-0.178-0.18-0.37-0.261-0.56c-0.144-0.331-0.107-0.654,0.056-0.972
	c0.199-0.386,0.45-0.737,0.757-1.04c0.411-0.406,0.846-0.791,1.271-1.181c0.044-0.042,0.073-0.075,0.076-0.142
	c0.007-0.16,0.092-0.287,0.196-0.401c0.237-0.264,0.534-0.453,0.856-0.58c0.677-0.266,1.309-0.63,1.978-0.909
	c0.237-0.1,0.479-0.184,0.719-0.276c0.024-0.01,0.05-0.024,0.061-0.029c-0.098-0.108-0.19-0.217-0.292-0.318
	c-0.327-0.33-0.649-0.66-0.903-1.051c-0.043-0.066-0.078-0.14-0.121-0.206c-0.024-0.034-0.066-0.092-0.087-0.087
	c-0.05,0.011-0.121,0.047-0.132,0.086c-0.035,0.109-0.062,0.226-0.055,0.338c0.02,0.319-0.029,0.628-0.12,0.931
	c-0.078,0.268-0.2,0.512-0.429,0.688c-0.073,0.058-0.136,0.081-0.217,0.008c-0.064-0.056-0.144-0.095-0.22-0.145
	c0.242-0.557,0.479-1.106,0.716-1.656c-0.004-0.006-0.012-0.011-0.017-0.017c-0.541,0.403-1.082,0.807-1.63,1.214
	c-0.082-0.075-0.158-0.145-0.222-0.206c0.512-0.534,1.023-1.063,1.516-1.577c-0.572,0.091-1.177,0.204-1.779-0.073
	c0.736-1.086,1.461-2.155,2.204-3.251c0.12,0.669,0.234,1.303,0.35,1.946c0.014-0.004,0.03-0.006,0.038-0.013
	c0.532-0.517,0.962-1.096,1.145-1.832c0.073-0.3,0.033-0.616-0.036-0.916c-0.286-1.239-0.417-2.494-0.325-3.766
	c0.07-0.965,0.273-1.896,0.748-2.753c0.636-1.149,1.62-1.843,2.875-2.172c0.426-0.109,0.859-0.167,1.296-0.202
	c0.354-0.027,0.705-0.09,1.057-0.111c1.144-0.062,2.247,0.1,3.26,0.669c1.033,0.581,1.68,1.473,2.055,2.579
	c0.211,0.623,0.321,1.268,0.367,1.922c0.069,0.979,0,1.953-0.132,2.924c-0.007,0.05,0,0.108,0.016,0.157
	c0.163,0.476,0.265,0.962,0.248,1.469c-0.009,0.288-0.063,0.567-0.184,0.83c-0.013,0.031-0.019,0.081-0.003,0.105
	c0.191,0.276,0.254,0.58,0.21,0.909c-0.003,0.018-0.003,0.035-0.004,0.069c0.049-0.006,0.095-0.006,0.138-0.019
	c0.272-0.072,0.48-0.24,0.66-0.452c0.259-0.307,0.423-0.663,0.554-1.037c0.012-0.03,0.021-0.062,0.033-0.091
	c0.003-0.006,0.01-0.01,0.026-0.026c0.537,1.227,1.08,2.447,1.384,3.783c-0.777-0.345-1.526-0.678-2.302-1.023
	c0.24,0.584,0.472,1.142,0.708,1.712c-0.138,0.044-0.271,0.086-0.418,0.132c-0.214-0.521-0.43-1.039-0.643-1.555
	c-0.009,0.001-0.016,0.004-0.023,0.006c-0.059,0.657-0.117,1.313-0.176,1.984c-0.148-0.01-0.288-0.021-0.436-0.03
	c0.053-0.538,0.106-1.066,0.162-1.631c-0.568,0.458-1.11,0.895-1.654,1.332c-0.647-0.699-0.906-1.899-0.413-2.841
	c0.166,0.109,0.328,0.221,0.497,0.325c0.265,0.161,0.538,0.307,0.847,0.347c0.142,0.018,0.293-0.013,0.437-0.036
	c0.033-0.006,0.076-0.073,0.082-0.117c0.018-0.19-0.07-0.335-0.22-0.444c-0.169-0.124-0.365-0.173-0.566-0.201
	c-0.46-0.068-0.909-0.041-1.336,0.164c-0.679,0.327-1.064,1.105-0.899,1.826c0.09,0.381,0.333,0.642,0.672,0.82
	c0.283,0.151,0.592,0.203,0.902,0.262c0.94,0.18,1.884,0.353,2.82,0.552c0.133,0.027,0.262,0.071,0.384,0.127
	c0.786,0.358,1.559,0.739,2.337,1.106c0.18,0.083,0.299,0.207,0.328,0.407c0.003,0.015,0.009,0.027,0.011,0.042
	c0.095,0.361,0.275,0.663,0.551,0.925c0.356,0.339,0.686,0.707,1.022,1.064c0.16,0.167,0.335,0.327,0.46,0.517
	c0.348,0.521,0.362,1.084,0.149,1.661c-0.095,0.263-0.236,0.495-0.436,0.701c-1.755,1.828-3.505,3.662-5.258,5.493
	c-0.042,0.043-0.049,0.106-0.02,0.157c0.528,0.914,0.973,1.864,1.233,2.893c0.118,0.467,0.191,0.942,0.142,1.428
	c-0.017,0.149-0.036,0.305-0.087,0.444c-0.081,0.217-0.097,0.436-0.101,0.66c-0.015,0.823,0.06,1.642,0.178,2.456
	c0.21,1.449,0.59,2.861,0.913,4.284c0.642,2.816,1.296,5.628,1.943,8.443c0.202,0.877,0.404,1.753,0.608,2.643
	c-0.244,0.105-0.489,0.21-0.741,0.316c0.012,0.039,0.021,0.072,0.033,0.105c0.341,0.925,0.68,1.851,1.024,2.776
	c0.036,0.093,0.02,0.152-0.048,0.218c-0.313,0.313-0.7,0.479-1.125,0.573c-0.666,0.146-1.332,0.095-1.994-0.029
	c-0.55-0.104-1.082-0.265-1.608-0.453c-0.064-0.023-0.105-0.083-0.105-0.151c0.003-0.826,0.001-1.651,0.001-2.476V85.902z
	 M60.093,58.149c-0.004-0.001-0.007-0.002-0.012-0.002c-0.002-0.055-0.002-0.108-0.011-0.161c-0.075-0.486-0.146-0.973-0.233-1.458
	c-0.118-0.654-0.245-1.307-0.475-1.935c-0.07-0.191-0.175-0.37-0.274-0.548c-0.047-0.086-0.112-0.099-0.214-0.043
	c-0.748,0.417-1.5,0.824-2.252,1.234c-0.141,0.076-0.209,0.186-0.154,0.335c0.045,0.121,0.106,0.24,0.186,0.34
	c0.338,0.42,0.679,0.838,1.03,1.247c0.384,0.447,0.781,0.886,1.246,1.253c0.193,0.151,0.396,0.292,0.645,0.345
	c0.221,0.049,0.384-0.034,0.45-0.247C60.06,58.392,60.07,58.269,60.093,58.149 M69.168,58.559c0.118-0.047,0.221-0.065,0.293-0.121
	c0.239-0.188,0.486-0.369,0.694-0.584c0.761-0.79,1.382-1.69,1.988-2.601c0.003-0.004,0.001-0.013,0.004-0.036
	c-0.175-0.143-0.352-0.298-0.542-0.436c-0.482-0.353-0.997-0.639-1.598-0.736c-0.072-0.013-0.106,0.004-0.129,0.07
	c-0.061,0.174-0.131,0.344-0.19,0.518c-0.357,1.062-0.597,2.145-0.571,3.272C69.124,58.112,69.149,58.316,69.168,58.559
	 M59.26,49.207c0.063-0.024,0.098-0.039,0.135-0.05c0.502-0.168,1-0.355,1.512-0.5c0.308-0.087,0.537-0.24,0.681-0.522
	c0.144-0.286,0.164-0.596,0.124-0.911c-0.003-0.027-0.024-0.06-0.046-0.078c-0.564-0.449-1.142-0.879-1.787-1.208
	c-0.188-0.095-0.397-0.151-0.596-0.226c-0.076-0.03-0.121-0.003-0.168,0.065c-0.205,0.305-0.453,0.565-0.794,0.721
	c-0.127,0.059-0.21,0.148-0.275,0.263c-0.089,0.158-0.043,0.272,0.137,0.297c0.126,0.019,0.259,0.022,0.388,0.01
	c0.52-0.043,1.039-0.093,1.557-0.14c0.026-0.002,0.053,0,0.095,0C59.902,47.688,59.587,48.431,59.26,49.207"/>
<path fill="#0684AC" d="M55.384,123.477c-0.459,0.138-0.767,0.23-1.074,0.324c1.064-1.146,0.847-2.576,0.928-3.949
	c-0.128,0.252-0.258,0.504-0.387,0.755c-0.09,0.013-0.183,0.026-0.272,0.041c-0.042-0.355-0.092-0.709-0.118-1.066
	c-0.004-0.074,0.069-0.156,0.115-0.23c0.541-0.858,1.085-1.717,1.722-2.727c-0.577-0.047-0.871-0.072-1.164-0.096
	c1.795-0.409,1.605-1.954,1.893-3.123c-0.623-0.268-1.223-0.523-2.008-0.86c1.909-0.64,2.068-0.795,2.251-3.609
	c-0.148,0.099-0.277,0.188-0.446,0.304c0-0.397-0.05-0.757,0.01-1.095c0.135-0.778,0.467-1.548,0.466-2.32
	c-0.007-2.376,0.735-4.483,2.126-6.358c0.934-1.258,2.221-1.736,3.815-1.464c4.004,0.678,6.497,4.049,6.205,8.47
	c2.1,1.249,2.66,1.962,2.503,3.288c1.628,0.447,2.375,1.696,2.896,3.221c0.944,2.754,2.001,5.469,2.965,8.215
	c0.434,1.238,0.801,2.504,1.094,3.782c0.117,0.505,0.081,1.034-0.089,1.523c-1.001,2.889-2,5.781-3.149,8.611
	c-0.344,0.847-1.182,1.492-1.772,2.244c-0.202,0.256-0.449,0.554-0.48,0.853c-0.131,1.204-0.012,2.461-0.304,3.618
	c-0.679,2.686-0.551,5.414-0.551,8.12c0.001,1.713,0.293,3.407,0.783,5.05c0.857,2.874,1.312,5.751,1.141,8.753
	c-0.108,1.928-0.143,3.88,0.044,5.796c0.141,1.442,0.736,2.835,1.039,4.271c0.327,1.545,0.627,3.104,0.787,4.675
	c0.112,1.104-0.098,1.223-1.181,1.342c-2.421,0.267-2.677,0.098-2.734-2.291c-0.049-2.043,0.056-4.087,0.066-6.131
	c0.001-0.259-0.033-0.517-0.102-0.765c-0.771-2.837-1.63-5.652-2.334-8.504c-0.426-1.732-0.558-3.535-0.974-5.268
	c-1.12-4.678-2.32-9.337-3.533-14.175c-0.625,0-1.431-0.048-2.222,0.033c-0.187,0.021-0.436,0.447-0.479,0.715
	c-0.495,3.075-0.931,6.161-1.434,9.236c-0.344,2.103-0.814,4.185-1.145,6.289c-0.453,2.869-0.817,5.753-1.246,8.627
	c-0.163,1.081-0.491,2.144-0.573,3.227c-0.064,0.866,0.137,1.752,0.21,2.63c0.03,0.368,0.095,0.745,0.051,1.105
	c-0.171,1.313-0.429,2.615-0.567,3.93c-0.167,1.611-1.002,2.266-2.609,1.954c-0.593-0.115-0.841-0.477-0.785-1.048
	c0.095-0.977,0.072-1.992,0.344-2.918c1.271-4.346,1.184-8.729,0.697-13.148c-0.236-2.146-0.102-4.31,0.357-6.422
	c0.689-3.176,1.053-6.477,0.436-9.776c-0.307-1.64-0.357-3.324-0.599-4.979c-0.061-0.414-0.348-0.842-0.639-1.165
	c-0.47-0.525-0.651-1.042-0.394-1.724c0.143-0.373,0.137-0.801,0.278-1.175c0.563-1.509,0.447-2.874-0.59-4.183
	c-0.228-0.291-0.081-0.903-0.056-1.367c0.083-1.492,0.204-2.983,0.273-4.478c0.019-0.404-0.049-1.064-0.206-1.44
	c-0.4-0.967-0.295-1.861,0.412-2.688C55.157,123.838,55.218,123.721,55.384,123.477 M72.694,134.86
	c0.07-0.444,0.078-0.771,0.18-1.066c0.214-0.617,0.6-1.2,0.698-1.83c0.384-2.434,0.718-4.875,0.974-7.325
	c0.043-0.405-0.424-0.847-0.594-1.294c-0.273-0.713-0.494-1.445-0.742-2.19c-0.955,0.814-0.777,1.48,0.752,3.023
	c-0.483,1.192-0.718,1.302-1.762,0.866c-0.235,0.383-0.465,0.76-0.696,1.135c0.68,0.994,0.68,0.994,0.072,1.591
	c-0.222-0.284-0.438-0.564-0.727-0.932c0.246,1.25,0.478,2.374,0.681,3.502c0.036,0.194-0.03,0.416-0.083,0.617
	c-0.078,0.289-0.321,0.607-0.254,0.85c0.234,0.866,0.545,1.713,0.884,2.544C72.159,134.558,72.459,134.676,72.694,134.86
	 M57.057,130.666c0.109,0.073,0.219,0.148,0.328,0.222c0.224-0.298,0.506-0.57,0.667-0.899c0.666-1.372,1.237-2.793,1.953-4.137
	c1.011-1.895,0.918-2.722-0.637-4.002c0.013,1.432-0.154,2.813-0.744,4.18C57.98,127.523,57.57,129.117,57.057,130.666"/>
<path fill="#0684AC" d="M70.09,186.854c1.141,0.315,2.169,0.797,2.658,2.013c0.145,0.356,0.406,0.678,0.654,0.979
	c0.854,1.037,1.289,2.253,1.102,3.552c-0.242,1.676,0.254,3.045,1.293,4.292c0.101,0.121,0.173,0.265,0.248,0.384
	c-0.035,0.073-0.044,0.137-0.075,0.152c-0.821,0.395-1.303,0.908-1.279,1.957c0.021,0.917-0.263,1.862-0.535,2.757
	c-0.082,0.276-0.542,0.571-0.865,0.613c-0.892,0.122-1.802,0.146-2.706,0.15c-0.41,0.002-0.767,0.276-0.873,0.675
	c-0.298,1.113-0.622,2.221-0.911,3.339c-0.128,0.496,0.027,0.886,0.407,1.296c3.245,3.506,6.854,6.584,10.722,9.376
	c1.332,0.962,2.102,2.282,1.965,3.99c-0.141,1.777-2.02,3.032-3.773,2.485c0.161,1.286,0.735,2.329,1.579,3.237
	c2.014,2.173,3.409,4.662,3.907,7.605c0.542,3.203,0.052,6.205-2.186,8.803c-1.154,1.337-2.821,2.004-4.562,2.298
	c-0.145,0.025-0.286,0.082-0.432,0.12h-16.45l-2.595-0.183c0.398-3.571,1.988-6.55,4.42-9.118c0.691-0.73,1.357-1.473,1.509-2.517
	c0.293-2.052,0.141-4.084-0.545-6.028c-0.496-1.41-1.187-2.751-1.805-4.119c-0.121-0.266-0.305-0.506-0.549-0.904
	c-0.328,0.885-0.605,1.63-0.882,2.376c-0.846,2.296-1.808,4.555-2.51,6.895c-1.3,4.327-2.447,8.7-3.653,13.056
	c-0.047,0.175-0.053,0.362-0.079,0.543H48.97c-0.086-0.106-0.115-0.138-0.201-0.244c0.279-1.467,0.458-2.953,0.741-4.42
	c0.528-2.74,1.019-5.492,1.651-8.211c0.467-2.016,1.165-3.979,1.705-5.98c0.653-2.417,0.58-4.913,0.705-7.386
	c0.123-2.413,0.529-4.773,1.291-7.074c0.56-1.689,1.71-2.999,2.739-4.396c0.75-1.023,1.418-2.112,2.091-3.19
	c0.233-0.376,0.347-0.812-0.223-1.313c-0.1,0.574-0.176,1.022-0.24,1.402c-0.46-0.105-0.971-0.137-1.398-0.341
	c-0.355-0.17-0.676-0.499-0.908-0.83c-0.414-0.591-0.75-1.237-1.118-1.859c-0.105,0.034-0.21,0.071-0.316,0.107
	c0.081,0.702,0.16,1.404,0.243,2.144c-0.223-0.182-0.45-0.363-0.78-0.629c-0.279,1.05-0.532,2.007-0.785,2.96
	c-0.085-0.004-0.17-0.009-0.254-0.013c-0.115-0.621-0.233-1.244-0.383-2.026c-0.449,0.411-0.775,0.71-1.274,1.166
	c0-0.399-0.052-0.631,0.011-0.827c0.083-0.257,0.223-0.515,0.398-0.722c0.774-0.919,1.458-1.855,1.377-3.16
	c-0.021-0.295,0.181-0.613,0.306-0.909c0.268-0.636,0.273-0.633-0.377-1.066c1.693-0.67,0.708-1.917,0.378-3.021
	c-0.072-0.235-0.155-0.475-0.278-0.688c-1.094-1.89-1.045-3.182,0.276-4.812c0.143-0.174,0.271-0.359,0.433-0.577
	c-0.2-0.129-0.344-0.223-0.622-0.403c0.576-0.199,1.042-0.357,1.541-0.529c-0.007-0.039-0.024-0.157-0.059-0.388
	c0.685,0.23,1.316,0.382,1.89,0.654c0.713,0.342,1.306,0.227,1.83-0.303c0.325-0.328,0.605-0.702,0.884-1.072
	c1.175-1.558,2.515-2.852,4.618-2.959h1.811C67.813,186.29,68.961,186.54,70.09,186.854 M58.517,196.072
	c0.239,1.051,0.67,2.077,0.754,3.138c0.052,0.647,0.447,0.733,0.775,1.011c0.309,0.264,0.611,0.535,0.991,0.867
	c-0.293,0.093-0.454,0.145-0.702,0.221c0.149,0.132,0.23,0.266,0.332,0.286c0.324,0.058,0.744,0.1,0.744-0.358
	c0-0.634-0.104-1.271-0.215-1.898c-0.036-0.21-0.223-0.4-0.364-0.583c-0.8-1.042-1.379-2.181-1.583-3.496
	c-0.041-0.258-0.184-0.501-0.33-0.878C58.384,194.978,58.393,195.533,58.517,196.072"/>
<g>
	<path d="M113.103,49.87c-0.218-0.343-0.452-0.701-0.654-1.044c0.031,0.343,0.093,0.701,0.093,1.044v7.743h-1.729V47.174
		c0-0.031-0.203-0.873-0.218-0.95h2.555l4.487,6.823c0.233,0.343,0.436,0.686,0.639,1.028c-0.031-0.389-0.094-0.81-0.094-1.2v-6.652
		h1.729V57.69h-1.683L113.103,49.87z"/>
	<path d="M122.954,48.249c-0.654,0-1.2-0.545-1.2-1.199s0.545-1.184,1.2-1.184s1.184,0.53,1.184,1.184
		S123.608,48.249,122.954,48.249z M122.003,50.711c0-0.031-0.156-0.764-0.171-0.841h2.041v7.743h-1.87V50.711z"/>
	<path d="M130.589,52.564c0-0.716-0.078-1.433-0.981-1.433c-0.467,0-1.355,0.499-1.683,0.857v5.624h-1.87v-5.546
		c0-0.545-0.109-1.682-0.483-2.134l1.963-0.233c0.14,0.312,0.218,0.67,0.265,0.997c0.623-0.561,1.511-1.044,2.368-1.044
		c1.792,0,2.306,1.106,2.306,2.727v5.234h-1.885V52.564z M130.465,48.717c-0.857,0-1.434-0.624-2.025-0.624
		c-0.265,0-0.624,0.156-0.624,0.467h-1.012c0-0.997,0.592-1.823,1.651-1.823c0.856,0,1.433,0.624,2.025,0.624
		c0.265,0,0.624-0.156,0.639-0.468h0.997C132.116,47.891,131.524,48.717,130.465,48.717z"/>
	<path d="M139.66,57.737c-0.639,0-1.091-0.436-1.231-1.043c-0.577,0.81-1.371,1.09-2.337,1.09c-1.215,0-2.197-0.717-2.197-1.994
		c0-2.259,2.431-2.711,4.222-2.711v-1.013c0-0.826-0.343-1.09-1.122-1.09c-0.717,0-1.449,0.483-1.994,0.903l-0.764-1.23
		c0.935-0.639,2.025-0.966,3.147-0.966c1.651,0,2.602,0.841,2.602,2.524v3.38c0,0.28,0,0.779,0.374,0.779
		c0.234,0,0.561-0.125,0.779-0.187l0.327,1.137C140.906,57.472,140.252,57.737,139.66,57.737z M135.843,55.603
		c0,0.483,0.468,0.748,0.904,0.748c0.857,0,1.371-0.873,1.371-1.636v-0.358C137.245,54.356,135.843,54.434,135.843,55.603z"/>
	<path d="M144.212,57.831c-0.826,0-1.854-0.265-2.586-0.67l0.67-1.278c0.53,0.312,1.122,0.624,1.76,0.624
		c0.624,0,1.168-0.312,1.168-0.997c0-1.574-3.412-0.857-3.412-3.412c0-1.651,1.527-2.43,2.991-2.43c0.717,0,1.636,0.156,2.29,0.483
		l-0.654,1.309c-0.42-0.327-1.013-0.53-1.542-0.53c-0.514,0-1.059,0.234-1.059,0.826c0,1.434,3.412,0.764,3.412,3.443
		C147.25,56.864,145.754,57.831,144.212,57.831z"/>
	<path d="M152.411,61.055h-0.576v-1.324c0.124,0.031,0.265,0.047,0.405,0.047c1.184,0,1.651-1.262,1.947-2.181l-2.805-7.727h2.01
		c0.499,1.433,1.044,2.851,1.512,4.3c0.108,0.358,0.14,0.794,0.218,1.168c0.063-0.374,0.109-0.81,0.218-1.168
		c0.452-1.449,0.997-2.867,1.496-4.3h1.714l-2.758,7.79C155.246,59.217,154.28,61.055,152.411,61.055z"/>
	<path d="M168.337,57.737c-0.639,0-1.09-0.436-1.23-1.043c-0.576,0.81-1.371,1.09-2.337,1.09c-1.215,0-2.196-0.717-2.196-1.994
		c0-2.259,2.43-2.711,4.222-2.711v-1.013c0-0.826-0.343-1.09-1.122-1.09c-0.717,0-1.448,0.483-1.994,0.903l-0.763-1.23
		c0.935-0.639,2.024-0.966,3.146-0.966c1.651,0,2.602,0.841,2.602,2.524v3.38c0,0.28,0,0.779,0.374,0.779
		c0.233,0,0.561-0.125,0.779-0.187l0.327,1.137C169.584,57.472,168.929,57.737,168.337,57.737z M164.521,55.603
		c0,0.483,0.467,0.748,0.903,0.748c0.856,0,1.371-0.873,1.371-1.636v-0.358C165.923,54.356,164.521,54.434,164.521,55.603z"/>
	<path d="M175.709,56.818c-0.436,0.639-1.402,0.981-2.149,0.981c-2.213,0-3.318-2.01-3.318-4.004c0-2.244,1.215-4.113,3.614-4.113
		c0.545,0,1.309,0.156,1.729,0.499c-0.016-0.421-0.016-0.467-0.016-0.951v-2.742l-0.234-0.841h2.104V55.4
		c0,0.592,0.094,1.621,0.39,2.166l-1.885,0.187C175.834,57.457,175.771,57.161,175.709,56.818z M174.026,51.007
		c-1.371,0-1.744,1.636-1.744,2.71c0,1.122,0.42,2.695,1.807,2.695c0.561,0,1.169-0.343,1.48-0.81v-2.54
		C175.569,52.035,175.211,51.007,174.026,51.007z"/>
	<path d="M182.677,57.799c-2.352,0-3.77-1.823-3.77-4.066c0-2.228,1.448-4.066,3.77-4.066c2.353,0,3.771,1.823,3.771,4.066
		C186.447,55.977,185.029,57.799,182.677,57.799z M182.677,50.944c-1.417,0-1.713,1.714-1.713,2.804
		c0,1.091,0.296,2.804,1.713,2.804c1.465,0,1.714-1.667,1.714-2.804S184.142,50.944,182.677,50.944z"/>
	<path d="M187.837,46.473c0-0.031-0.155-0.763-0.171-0.841h2.071v11.98h-1.9V46.473z"/>
	<path d="M197.233,53.967h-4.082c0,1.184,0.639,2.57,2.01,2.57c0.654,0,1.418-0.358,1.885-0.826l0.795,1.247
		c-0.701,0.576-1.917,0.826-2.773,0.826c-2.431,0-3.895-1.589-3.895-3.988c0-2.181,1.293-4.144,3.63-4.144
		c2.072,0,3.225,1.355,3.225,3.381C198.027,53.577,197.856,53.967,197.233,53.967z M194.818,50.929c-0.873,0-1.573,0.997-1.62,1.807
		h2.617c0.233,0,0.265-0.14,0.265-0.343C196.08,51.599,195.675,50.929,194.818,50.929z"/>
	<path d="M201.552,57.831c-0.826,0-1.854-0.265-2.587-0.67l0.67-1.278c0.53,0.312,1.122,0.624,1.761,0.624
		c0.623,0,1.169-0.312,1.169-0.997c0-1.574-3.412-0.857-3.412-3.412c0-1.651,1.526-2.43,2.991-2.43c0.717,0,1.636,0.156,2.29,0.483
		l-0.654,1.309c-0.421-0.327-1.013-0.53-1.542-0.53c-0.515,0-1.06,0.234-1.06,0.826c0,1.434,3.412,0.764,3.412,3.443
		C204.59,56.864,203.094,57.831,201.552,57.831z"/>
	<path d="M209.358,57.799c-2.461,0-3.785-1.683-3.785-4.066c0-2.415,1.573-4.066,4.004-4.066c0.763,0,1.729,0.296,2.353,0.748
		l-0.936,1.184c-0.498-0.374-0.935-0.607-1.589-0.607c-1.34,0-1.775,1.636-1.775,2.711c0,1.277,0.498,2.789,2.01,2.789
		c0.67,0,1.137-0.358,1.62-0.764l0.794,1.34C211.104,57.55,210.449,57.799,209.358,57.799z"/>
	<path d="M218.523,53.967h-4.082c0,1.184,0.639,2.57,2.01,2.57c0.654,0,1.418-0.358,1.885-0.826l0.795,1.247
		c-0.701,0.576-1.917,0.826-2.773,0.826c-2.431,0-3.895-1.589-3.895-3.988c0-2.181,1.293-4.144,3.63-4.144
		c2.072,0,3.225,1.355,3.225,3.381C219.317,53.577,219.146,53.967,218.523,53.967z M216.108,50.929c-0.873,0-1.573,0.997-1.62,1.807
		h2.617c0.233,0,0.265-0.14,0.265-0.343C217.37,51.599,216.965,50.929,216.108,50.929z"/>
	<path d="M225.443,52.564c0-0.716-0.078-1.433-0.981-1.433c-0.468,0-1.355,0.499-1.683,0.857v5.624h-1.869v-5.546
		c0-0.545-0.109-1.682-0.483-2.134l1.963-0.233c0.141,0.312,0.218,0.67,0.265,0.997c0.623-0.561,1.512-1.044,2.368-1.044
		c1.792,0,2.306,1.106,2.306,2.727v5.234h-1.885V52.564z"/>
	<path d="M231.476,57.768c-1.34,0-1.947-0.592-1.947-1.963V51.1h-1.277v-1.028c1.277-0.031,1.9-1.386,2.134-2.461h1.355
		c-0.171,0.732-0.312,1.511-0.312,2.259h1.886l-0.374,1.23h-1.512v4.284c0,0.358,0.031,1.044,0.654,1.044
		c0.343,0,0.686-0.078,1.013-0.156l0.219,1.168C232.769,57.612,232.037,57.768,231.476,57.768z"/>
	<path d="M239.704,53.967h-4.082c0,1.184,0.639,2.57,2.01,2.57c0.654,0,1.418-0.358,1.885-0.826l0.795,1.247
		c-0.701,0.576-1.917,0.826-2.773,0.826c-2.431,0-3.895-1.589-3.895-3.988c0-2.181,1.293-4.144,3.63-4.144
		c2.072,0,3.225,1.355,3.225,3.381C240.498,53.577,240.327,53.967,239.704,53.967z M237.289,50.929c-0.873,0-1.573,0.997-1.62,1.807
		h2.617c0.233,0,0.265-0.14,0.265-0.343C238.551,51.599,238.146,50.929,237.289,50.929z"/>
	<path d="M244.022,57.831c-0.826,0-1.854-0.265-2.587-0.67l0.67-1.278c0.53,0.312,1.122,0.624,1.761,0.624
		c0.623,0,1.169-0.312,1.169-0.997c0-1.574-3.412-0.857-3.412-3.412c0-1.651,1.526-2.43,2.991-2.43c0.717,0,1.636,0.156,2.29,0.483
		l-0.654,1.309c-0.421-0.327-1.013-0.53-1.542-0.53c-0.515,0-1.06,0.234-1.06,0.826c0,1.434,3.412,0.764,3.412,3.443
		C247.061,56.864,245.564,57.831,244.022,57.831z"/>
</g>
<g>
	<path d="M115.736,77.812c-0.607,0.499-1.433,0.795-2.212,0.795c-1.698,0-2.944-1.527-2.944-3.163c0-1.87,1.496-3.35,3.365-3.35
		c2.259,0,3.474,1.729,3.474,3.863c0,2.96-1.87,5.142-4.315,6.543c-0.639,0.358-1.34,0.717-2.041,0.904l-0.327-0.873
		C112.947,81.613,115.05,80.243,115.736,77.812z M116.001,75.912c0-1.324-0.499-2.851-2.072-2.851c-1.277,0-1.932,1.246-1.932,2.384
		c0,1.122,0.701,2.103,1.885,2.103c0.81,0,1.542-0.483,2.088-1.044C116.001,76.301,116.001,76.114,116.001,75.912z"/>
	<path d="M119.821,80.18c-0.561,0-1.028-0.467-1.028-1.028c0-0.576,0.452-1.028,1.028-1.028c0.561,0,1.028,0.468,1.028,1.028
		C120.85,79.713,120.382,80.18,119.821,80.18z"/>
	<path d="M127.643,77.812c-0.607,0.499-1.433,0.795-2.212,0.795c-1.698,0-2.944-1.527-2.944-3.163c0-1.87,1.496-3.35,3.365-3.35
		c2.259,0,3.474,1.729,3.474,3.863c0,2.96-1.87,5.142-4.315,6.543c-0.639,0.358-1.34,0.717-2.041,0.904l-0.327-0.873
		C124.854,81.613,126.958,80.243,127.643,77.812z M127.908,75.912c0-1.324-0.499-2.851-2.072-2.851
		c-1.277,0-1.932,1.246-1.932,2.384c0,1.122,0.701,2.103,1.885,2.103c0.81,0,1.542-0.483,2.088-1.044
		C127.908,76.301,127.908,76.114,127.908,75.912z"/>
	<path d="M142.23,69.789h-3.49c0.483,0.592,0.701,1.355,0.701,2.119c0,1.417-0.873,3.069-2.461,3.069
		c-1.683,0-2.633-1.526-2.633-3.069c0-1.574,0.826-3.022,2.555-3.022h6.746l-5.531,11.342h-0.997L142.23,69.789z M138.258,71.939
		c0-0.779-0.343-2.15-1.34-2.15c-0.981,0-1.402,1.402-1.402,2.181c0,0.811,0.436,2.088,1.433,2.088S138.258,72.702,138.258,71.939z
		 M141.42,77.033c0-1.589,0.81-3.007,2.555-3.007c1.636,0,2.539,1.527,2.539,3.007c0,1.433-0.872,3.069-2.477,3.069
		C142.355,80.103,141.42,78.576,141.42,77.033z M145.315,77.064c0-0.764-0.327-2.15-1.324-2.15s-1.418,1.386-1.418,2.181
		c0,0.826,0.452,2.087,1.449,2.087S145.315,77.828,145.315,77.064z"/>
</g>
<g>
	<path d="M116.671,154.198c0,1.839-1.434,2.851-3.178,2.851c-1.527,0-2.976-0.997-2.976-2.633c0-1.589,0.826-2.274,1.9-3.162
		l0.25-0.202c-0.841-0.92-1.776-1.496-1.776-2.898c0-1.479,1.278-2.633,2.727-2.633c1.48,0,2.68,0.935,2.68,2.478
		c0,1.277-0.779,1.994-1.62,2.772l-0.141,0.141C115.44,151.799,116.671,152.796,116.671,154.198z M111.794,154.37
		c0,0.903,0.748,1.744,1.667,1.744c1.059,0,1.76-0.794,1.76-1.822c0-1.013-1.137-1.854-1.792-2.493l-0.234,0.203
		C112.433,152.672,111.794,153.201,111.794,154.37z M115.05,147.998c0-0.826-0.53-1.559-1.402-1.559
		c-0.904,0-1.309,0.842-1.309,1.636c0,0.826,0.872,1.543,1.402,2.072C114.365,149.603,115.05,148.886,115.05,147.998z"/>
	<path d="M123.404,154.666c-0.607,0.498-1.433,0.794-2.212,0.794c-1.698,0-2.944-1.526-2.944-3.162c0-1.87,1.496-3.35,3.365-3.35
		c2.259,0,3.474,1.729,3.474,3.863c0,2.96-1.87,5.142-4.315,6.544c-0.639,0.357-1.34,0.716-2.041,0.903l-0.327-0.873
		C120.615,158.467,122.718,157.096,123.404,154.666z M123.669,152.765c0-1.324-0.499-2.851-2.072-2.851
		c-1.277,0-1.932,1.246-1.932,2.384c0,1.121,0.701,2.103,1.885,2.103c0.81,0,1.542-0.482,2.088-1.043
		C123.669,153.154,123.669,152.968,123.669,152.765z"/>
	<path d="M127.489,157.034c-0.561,0-1.028-0.468-1.028-1.028c0-0.577,0.452-1.028,1.028-1.028c0.561,0,1.028,0.467,1.028,1.028
		C128.518,156.566,128.05,157.034,127.489,157.034z"/>
	<path d="M130.124,153.015c0-2.244,1.402-4.066,3.755-4.066c2.337,0,3.754,1.838,3.754,4.066c0,2.228-1.417,4.065-3.754,4.065
		S130.124,155.242,130.124,153.015z M136.215,153.015c0-1.605-0.452-3.085-2.337-3.085c-1.854,0-2.353,1.495-2.353,3.085
		c0,1.604,0.483,3.084,2.353,3.084C135.763,156.099,136.215,154.619,136.215,153.015z"/>
	<path d="M150.553,146.643h-3.49c0.483,0.592,0.701,1.355,0.701,2.118c0,1.418-0.873,3.069-2.461,3.069
		c-1.683,0-2.633-1.526-2.633-3.069c0-1.573,0.826-3.021,2.555-3.021h6.746l-5.531,11.341h-0.997L150.553,146.643z M146.58,148.792
		c0-0.778-0.343-2.149-1.34-2.149c-0.981,0-1.402,1.402-1.402,2.181c0,0.811,0.436,2.088,1.433,2.088S146.58,149.556,146.58,148.792
		z M149.743,153.887c0-1.589,0.81-3.007,2.555-3.007c1.636,0,2.539,1.526,2.539,3.007c0,1.434-0.872,3.069-2.477,3.069
		C150.678,156.956,149.743,155.429,149.743,153.887z M153.638,153.918c0-0.764-0.327-2.15-1.324-2.15s-1.418,1.387-1.418,2.182
		c0,0.825,0.452,2.088,1.449,2.088S153.638,154.682,153.638,153.918z"/>
</g>
<g>
	<path d="M114.521,240.544h-4.549v-0.623l4.315-7.136h1.527v6.684h1.573l-0.28,1.075h-1.293v2.882h-1.293V240.544z M111.405,239.469
		h3.116v-5.141L111.405,239.469z"/>
	<path d="M119.213,240.7c-0.561,0-1.028-0.468-1.028-1.028c0-0.577,0.452-1.028,1.028-1.028c0.561,0,1.028,0.467,1.028,1.028
		C120.242,240.232,119.774,240.7,119.213,240.7z"/>
	<path d="M125.883,233.97h-4.564l0.312-1.169h5.764v0.654l-4.331,9.971h-1.387L125.883,233.97z"/>
	<path d="M139.893,230.309h-3.49c0.483,0.592,0.701,1.355,0.701,2.118c0,1.418-0.873,3.069-2.461,3.069
		c-1.683,0-2.633-1.526-2.633-3.069c0-1.573,0.826-3.021,2.555-3.021h6.746l-5.531,11.341h-0.997L139.893,230.309z M135.92,232.458
		c0-0.778-0.343-2.149-1.34-2.149c-0.981,0-1.402,1.402-1.402,2.181c0,0.811,0.436,2.088,1.433,2.088S135.92,233.222,135.92,232.458
		z M139.083,237.553c0-1.589,0.81-3.007,2.555-3.007c1.636,0,2.539,1.526,2.539,3.007c0,1.434-0.872,3.069-2.477,3.069
		C140.018,240.622,139.083,239.095,139.083,237.553z M142.978,237.584c0-0.764-0.327-2.15-1.324-2.15s-1.418,1.387-1.418,2.182
		c0,0.825,0.452,2.088,1.449,2.088S142.978,238.348,142.978,237.584z"/>
</g>
<g>
	<path d="M116.157,130.01h-3.365l-1.168,3.271h-1.807l4.035-11.404h1.698l4.035,11.404h-2.306L116.157,130.01z M114.458,124.588
		c-0.358,1.324-0.732,2.602-1.137,3.895h2.321C115.222,127.19,114.817,125.896,114.458,124.588z"/>
	<path d="M125.336,132.487c-0.436,0.639-1.402,0.981-2.15,0.981c-2.212,0-3.318-2.01-3.318-4.004c0-2.244,1.215-4.113,3.615-4.113
		c0.545,0,1.309,0.156,1.729,0.499c-0.016-0.421-0.016-0.467-0.016-0.951v-2.742l-0.233-0.841h2.103v9.752
		c0,0.592,0.093,1.621,0.39,2.166l-1.885,0.187C125.461,133.125,125.399,132.83,125.336,132.487z M123.654,126.676
		c-1.371,0-1.745,1.636-1.745,2.71c0,1.122,0.421,2.695,1.807,2.695c0.561,0,1.168-0.343,1.48-0.81v-2.54
		C125.196,127.704,124.838,126.676,123.654,126.676z"/>
	<path d="M135.249,133.406c-0.639,0-1.09-0.436-1.215-1.043c-0.67,0.685-1.589,1.137-2.555,1.137c-1.792,0-2.321-1.106-2.321-2.727
		v-4.393l-0.171-0.841h2.072v4.907c0,0.717,0.109,1.558,1.013,1.558c0.873,0,1.651-0.592,1.651-1.511v-4.113
		c0-0.031-0.171-0.764-0.187-0.841h2.088v5.686c0,0.265,0,0.811,0.39,0.811c0.233,0,0.499-0.125,0.732-0.187l0.327,1.137
		C136.495,133.141,135.841,133.406,135.249,133.406z"/>
	<path d="M137.729,122.142c0-0.031-0.156-0.763-0.171-0.841h2.072v11.98h-1.901V122.142z"/>
	<path d="M143.916,133.437c-1.34,0-1.947-0.592-1.947-1.963v-4.705h-1.277v-1.028c1.277-0.031,1.9-1.386,2.134-2.461h1.355
		c-0.171,0.732-0.312,1.511-0.312,2.259h1.885l-0.374,1.23h-1.511v4.284c0,0.358,0.031,1.044,0.654,1.044
		c0.343,0,0.686-0.078,1.013-0.156l0.218,1.168C145.209,133.281,144.477,133.437,143.916,133.437z"/>
	<path d="M151.988,133.406c-0.639,0-1.091-0.436-1.231-1.043c-0.576,0.81-1.37,1.09-2.336,1.09c-1.215,0-2.197-0.717-2.197-1.994
		c0-2.259,2.431-2.711,4.222-2.711v-1.013c0-0.826-0.343-1.09-1.121-1.09c-0.717,0-1.449,0.483-1.994,0.903l-0.764-1.23
		c0.935-0.639,2.025-0.966,3.147-0.966c1.651,0,2.602,0.841,2.602,2.524v3.38c0,0.28,0,0.779,0.374,0.779
		c0.233,0,0.561-0.125,0.778-0.187l0.327,1.137C153.234,133.141,152.58,133.406,151.988,133.406z M148.171,131.271
		c0,0.483,0.468,0.748,0.904,0.748c0.856,0,1.37-0.873,1.37-1.636v-0.358C149.573,130.025,148.171,130.103,148.171,131.271z"/>
	<path d="M156.541,133.5c-0.826,0-1.854-0.265-2.586-0.67l0.669-1.278c0.53,0.312,1.122,0.624,1.761,0.624
		c0.623,0,1.169-0.312,1.169-0.997c0-1.574-3.412-0.857-3.412-3.412c0-1.651,1.526-2.43,2.991-2.43c0.717,0,1.636,0.156,2.29,0.483
		l-0.654,1.309c-0.421-0.327-1.013-0.53-1.542-0.53c-0.515,0-1.06,0.234-1.06,0.826c0,1.434,3.412,0.764,3.412,3.443
		C159.579,132.533,158.083,133.5,156.541,133.5z"/>
</g>
<g>
	<path d="M119.927,208.735c0-0.374,0.047-0.763,0.078-1.121c-0.125,0.374-0.234,0.747-0.374,1.121l-2.789,7.743h-1.153l-2.866-7.743
		c-0.14-0.374-0.25-0.747-0.374-1.121c0.016,0.358,0.078,0.747,0.078,1.121v7.728h-1.698v-10.438c0-0.03-0.203-0.872-0.218-0.95
		h2.991l2.43,6.544c0.234,0.623,0.327,1.246,0.452,1.885c0.156-0.654,0.202-1.215,0.42-1.823l2.384-6.605h2.742v11.389h-2.103
		V208.735z"/>
	<path d="M129.124,216.604c-0.639,0-1.091-0.437-1.231-1.044c-0.577,0.81-1.371,1.09-2.337,1.09c-1.215,0-2.197-0.716-2.197-1.994
		c0-2.259,2.431-2.71,4.222-2.71v-1.013c0-0.826-0.343-1.091-1.122-1.091c-0.717,0-1.449,0.483-1.994,0.903l-0.764-1.23
		c0.935-0.639,2.025-0.966,3.147-0.966c1.651,0,2.602,0.841,2.602,2.523v3.381c0,0.28,0,0.779,0.374,0.779
		c0.234,0,0.561-0.125,0.779-0.188l0.327,1.138C130.37,216.338,129.716,216.604,129.124,216.604z M125.307,214.469
		c0,0.483,0.468,0.748,0.904,0.748c0.857,0,1.371-0.873,1.371-1.636v-0.358C126.709,213.223,125.307,213.301,125.307,214.469z"/>
	<path d="M136.496,215.684c-0.436,0.639-1.402,0.981-2.15,0.981c-2.212,0-3.318-2.01-3.318-4.004c0-2.243,1.215-4.112,3.615-4.112
		c0.545,0,1.309,0.155,1.729,0.498c-0.016-0.42-0.016-0.467-0.016-0.95v-2.742l-0.233-0.841h2.103v9.753
		c0,0.592,0.093,1.62,0.39,2.165l-1.885,0.188C136.621,216.322,136.558,216.026,136.496,215.684z M134.813,209.873
		c-1.371,0-1.745,1.636-1.745,2.711c0,1.121,0.421,2.695,1.807,2.695c0.561,0,1.168-0.343,1.48-0.811v-2.539
		C136.355,210.901,135.997,209.873,134.813,209.873z"/>
	<path d="M144.398,210.434c-0.997,0-1.636,0.67-2.181,1.434v4.611h-1.869v-5.655c0-0.592-0.125-1.589-0.499-2.088l1.979-0.155
		c0.218,0.482,0.358,1.105,0.374,1.636c0.514-0.873,1.527-1.636,2.571-1.636l-0.312,1.854H144.398z"/>
	<path d="M151.068,212.833h-4.082c0,1.184,0.639,2.57,2.009,2.57c0.654,0,1.418-0.358,1.886-0.825l0.794,1.246
		c-0.701,0.576-1.916,0.825-2.772,0.825c-2.431,0-3.895-1.589-3.895-3.988c0-2.181,1.293-4.144,3.629-4.144
		c2.072,0,3.226,1.355,3.226,3.381C151.863,212.443,151.691,212.833,151.068,212.833z M148.653,209.795
		c-0.872,0-1.573,0.997-1.62,1.808h2.617c0.234,0,0.266-0.141,0.266-0.343C149.916,210.465,149.511,209.795,148.653,209.795z"/>
	<path d="M155.388,216.696c-0.826,0-1.854-0.265-2.587-0.67l0.67-1.277c0.53,0.312,1.122,0.623,1.761,0.623
		c0.623,0,1.169-0.312,1.169-0.997c0-1.573-3.412-0.856-3.412-3.411c0-1.651,1.526-2.431,2.991-2.431
		c0.717,0,1.636,0.155,2.29,0.482l-0.654,1.31c-0.421-0.327-1.013-0.53-1.542-0.53c-0.515,0-1.06,0.233-1.06,0.826
		c0,1.433,3.412,0.763,3.412,3.442C158.426,215.73,156.93,216.696,155.388,216.696z"/>
	<path d="M169.958,216.837c0,2.243-2.321,3.225-4.253,3.225c-1.247,0-3.116-0.343-3.116-1.947c0-0.919,0.639-1.667,1.371-1.994
		v-0.063c-0.358-0.093-0.717-0.576-0.717-1.06c0-0.296,0.592-0.529,1.184-1.526c-0.856-0.483-1.386-1.277-1.386-2.29
		c0-1.62,1.371-2.68,2.944-2.68c0.654,0,1.105,0.233,1.667,0.233c0.919,0,1.869-0.093,2.772-0.171l-0.343,1.293h-1.324
		c-0.108,0-0.249-0.047-0.357-0.078c0.327,0.421,0.498,0.857,0.498,1.387c0,1.636-1.402,2.695-2.991,2.695
		c-0.374,0-0.732,0.296-0.732,0.701c0,0.451,0.686,0.498,1.277,0.498h0.717C168.462,215.061,169.958,215.17,169.958,216.837z
		 M164.489,217.756c0,0.732,0.857,0.966,1.449,0.966c0.966,0,2.243-0.249,2.243-1.464c0-0.748-0.95-0.779-1.511-0.779h-1.418
		C164.832,216.712,164.489,217.258,164.489,217.756z M166.967,211.229c0-0.857-0.374-1.559-0.997-1.559s-0.981,0.701-0.981,1.559
		c0,0.856,0.358,1.542,0.981,1.542S166.967,212.085,166.967,211.229z"/>
	<path d="M176.489,212.833h-4.082c0,1.184,0.639,2.57,2.01,2.57c0.654,0,1.418-0.358,1.885-0.825l0.795,1.246
		c-0.701,0.576-1.917,0.825-2.773,0.825c-2.431,0-3.895-1.589-3.895-3.988c0-2.181,1.293-4.144,3.63-4.144
		c2.072,0,3.225,1.355,3.225,3.381C177.283,212.443,177.112,212.833,176.489,212.833z M174.074,209.795
		c-0.873,0-1.573,0.997-1.62,1.808h2.617c0.233,0,0.265-0.141,0.265-0.343C175.336,210.465,174.931,209.795,174.074,209.795z"/>
	<path d="M180.808,216.696c-0.826,0-1.854-0.265-2.587-0.67l0.67-1.277c0.53,0.312,1.122,0.623,1.761,0.623
		c0.623,0,1.169-0.312,1.169-0.997c0-1.573-3.412-0.856-3.412-3.411c0-1.651,1.526-2.431,2.991-2.431
		c0.717,0,1.636,0.155,2.29,0.482l-0.654,1.31c-0.421-0.327-1.013-0.53-1.542-0.53c-0.515,0-1.06,0.233-1.06,0.826
		c0,1.433,3.412,0.763,3.412,3.442C183.846,215.73,182.35,216.696,180.808,216.696z"/>
	<path d="M187.68,216.635c-1.34,0-1.947-0.593-1.947-1.964v-4.704h-1.277v-1.028c1.277-0.031,1.9-1.387,2.134-2.462h1.355
		c-0.171,0.732-0.312,1.512-0.312,2.259h1.886l-0.374,1.231h-1.512v4.284c0,0.358,0.031,1.044,0.654,1.044
		c0.343,0,0.686-0.078,1.013-0.156l0.219,1.169C188.973,216.479,188.241,216.635,187.68,216.635z"/>
	<path d="M195.752,216.604c-0.639,0-1.09-0.437-1.23-1.044c-0.576,0.81-1.371,1.09-2.337,1.09c-1.215,0-2.196-0.716-2.196-1.994
		c0-2.259,2.43-2.71,4.222-2.71v-1.013c0-0.826-0.343-1.091-1.122-1.091c-0.717,0-1.448,0.483-1.994,0.903l-0.763-1.23
		c0.935-0.639,2.024-0.966,3.146-0.966c1.651,0,2.602,0.841,2.602,2.523v3.381c0,0.28,0,0.779,0.374,0.779
		c0.233,0,0.561-0.125,0.779-0.188l0.327,1.138C196.998,216.338,196.344,216.604,195.752,216.604z M191.936,214.469
		c0,0.483,0.467,0.748,0.903,0.748c0.856,0,1.371-0.873,1.371-1.636v-0.358C193.338,213.223,191.936,213.301,191.936,214.469z"/>
	<path d="M202.906,211.431c0-0.717-0.078-1.433-0.981-1.433c-0.468,0-1.355,0.498-1.683,0.856v5.624h-1.869v-5.546
		c0-0.546-0.109-1.683-0.483-2.135l1.963-0.233c0.141,0.312,0.218,0.67,0.265,0.997c0.623-0.562,1.512-1.044,2.368-1.044
		c1.792,0,2.306,1.106,2.306,2.727v5.234h-1.885V211.431z"/>
	<path d="M208.938,216.635c-1.34,0-1.947-0.593-1.947-1.964v-4.704h-1.277v-1.028c1.277-0.031,1.9-1.387,2.134-2.462h1.355
		c-0.171,0.732-0.312,1.512-0.312,2.259h1.886l-0.374,1.231h-1.512v4.284c0,0.358,0.031,1.044,0.654,1.044
		c0.343,0,0.686-0.078,1.013-0.156l0.219,1.169C210.231,216.479,209.5,216.635,208.938,216.635z"/>
	<path d="M217.151,212.833h-4.082c0,1.184,0.639,2.57,2.01,2.57c0.654,0,1.418-0.358,1.885-0.825l0.795,1.246
		c-0.701,0.576-1.917,0.825-2.773,0.825c-2.431,0-3.895-1.589-3.895-3.988c0-2.181,1.293-4.144,3.63-4.144
		c2.072,0,3.225,1.355,3.225,3.381C217.945,212.443,217.774,212.833,217.151,212.833z M214.736,209.795
		c-0.873,0-1.573,0.997-1.62,1.808h2.617c0.233,0,0.265-0.141,0.265-0.343C215.998,210.465,215.593,209.795,214.736,209.795z"/>
	<path d="M221.47,216.696c-0.826,0-1.854-0.265-2.587-0.67l0.67-1.277c0.53,0.312,1.122,0.623,1.761,0.623
		c0.623,0,1.169-0.312,1.169-0.997c0-1.573-3.412-0.856-3.412-3.411c0-1.651,1.526-2.431,2.991-2.431
		c0.717,0,1.636,0.155,2.29,0.482l-0.654,1.31c-0.421-0.327-1.013-0.53-1.542-0.53c-0.515,0-1.06,0.233-1.06,0.826
		c0,1.433,3.412,0.763,3.412,3.442C224.508,215.73,223.012,216.696,221.47,216.696z"/>
</g>
<path fill="none" stroke="#9995BC" stroke-width="2" stroke-miterlimit="10" d="M273.303,271.224H22.911
	c-9.721,0-17.675-7.955-17.675-17.676V25.212c0-9.721,7.955-17.675,17.675-17.675h250.392c9.721,0,17.675,7.955,17.675,17.675
	v228.336C290.978,263.269,283.023,271.224,273.303,271.224z"/>
</svg>
